<svg xmlns="http://www.w3.org/2000/svg" aria-hidden="true" style="position:absolute;width:0;height:0;overflow:hidden">
    <defs>
        <!-- favorite-icon -->
        <symbol id="favorite" viewBox="0 0 32 32">
            <path fill="none" stroke-linejoin="round" stroke-linecap="round" stroke-miterlimit="4" stroke-width="3.2" d="M27.787 6.147c-0.681-0.681-1.49-1.222-2.38-1.591s-1.844-0.559-2.807-0.559c-0.963 0-1.917 0.19-2.807 0.559s-1.699 0.909-2.38 1.591l-1.413 1.413-1.413-1.413c-1.376-1.376-3.241-2.148-5.187-2.148s-3.811 0.773-5.187 2.148c-1.376 1.376-2.148 3.241-2.148 5.187s0.773 3.811 2.148 5.187l11.787 11.787 11.787-11.787c0.681-0.681 1.222-1.49 1.591-2.38s0.559-1.844 0.559-2.807c0-0.963-0.19-1.917-0.559-2.807s-0.909-1.699-1.591-2.38z"></path>
        </symbol>

        <!-- favorite-true-icon -->
        <symbol id="favorite-true" viewBox="0 0 35 32">
            <path stroke-linejoin="round" stroke-linecap="round" stroke-miterlimit="4" stroke-width="1.4545" d="M31.602 3.428c-0.817-0.856-1.788-1.535-2.856-1.999s-2.213-0.702-3.37-0.702c-1.156 0-2.301 0.239-3.37 0.702s-2.039 1.142-2.856 1.999l-1.697 1.776-1.697-1.776c-1.651-1.728-3.891-2.7-6.226-2.7s-4.575 0.971-6.226 2.7c-1.651 1.728-2.579 4.073-2.579 6.517s0.928 4.789 2.579 6.517l14.148 14.81 14.148-14.81c0.818-0.856 1.467-1.872 1.909-2.99s0.67-2.317 0.67-3.527c0-1.21-0.228-2.409-0.67-3.527s-1.091-2.134-1.909-2.99z"></path>
        </symbol>

        <!-- shop-icon -->
        <symbol id="shop" viewBox="0 0 29 32">
            <path fill="none" stroke-linejoin="round" stroke-linecap="round" stroke-miterlimit="10" stroke-width="2.9091" d="M8.546 10.227v-1.293c0-3 2.413-5.947 5.413-6.227 0.834-0.082 1.675 0.012 2.47 0.275s1.527 0.689 2.147 1.252c0.62 0.563 1.116 1.249 1.455 2.015s0.514 1.594 0.514 2.432v1.84M10.546 29.334h8c5.36 0 6.32-2.147 6.6-4.76l1-8c0.36-3.253-0.573-5.907-6.267-5.907h-10.667c-5.693 0-6.627 2.653-6.267 5.907l1 8c0.28 2.613 1.24 4.76 6.6 4.76z"></path>
        </symbol>

        <!-- shop-true-icon -->
        <symbol id="shop-true" viewBox="0 0 30 30">
            <path d="M8.612 8c-3.246 0-5.739 2.875-5.28 6.088l1.36 9.522c0.469 3.284 3.282 5.724 6.6 5.724h9.415c3.318 0 6.131-2.439 6.6-5.724l1.36-9.522c0.459-3.213-2.034-6.088-5.28-6.088h-14.776z"></path>
            <path d="M9.334 6.351c1.129-2.259 3.438-3.685 5.963-3.685h1.408c2.525 0 4.834 1.427 5.963 3.685l1.193 2.385c0.329 0.659 0.062 1.46-0.596 1.789s-1.459 0.062-1.789-0.596l-1.193-2.385c-0.678-1.355-2.063-2.211-3.578-2.211h-1.408c-1.515 0-2.9 0.856-3.577 2.211l-1.193 2.386c-0.329 0.659-1.13 0.926-1.789 0.596s-0.926-1.13-0.596-1.789l1.193-2.386z"></path>
        </symbol>

        <!-- user-icon -->
        <symbol id="user" viewBox="0 0 28 32">
            <path d="M18.798 18.218c-1.718 0-2.55 0.961-5.373 0.961s-3.641-0.961-5.373-0.961c-4.445 0-8.052 3.607-8.052 8.052v1.534c0 1.589 1.289 2.877 2.877 2.877h21.095c1.589 0 2.877-1.289 2.877-2.877v-1.534c0-4.445-3.607-8.052-8.052-8.052zM23.973 27.805h-21.095v-1.534c0-2.85 2.325-5.175 5.175-5.175 0.873 0 2.298 0.961 5.373 0.961 3.095 0 4.486-0.961 5.373-0.961 2.85 0 5.175 2.325 5.175 5.175v1.534zM13.425 17.257c4.766 0 8.632-3.866 8.632-8.632s-3.866-8.625-8.632-8.625c-4.766 0-8.632 3.866-8.632 8.632s3.866 8.625 8.632 8.625zM13.425 2.877c3.171 0 5.755 2.584 5.755 5.755s-2.584 5.755-5.755 5.755c-3.17 0-5.755-2.584-5.755-5.755s2.584-5.755 5.755-5.755z"></path>
        </symbol>

        <!-- user-auth-icon -->
        <symbol id="user-auth" viewBox="0 0 27 32">
            <path d="M13.732 16c4.334 0 7.847-3.581 7.847-8s-3.513-8-7.847-8c-4.334 0-7.847 3.581-7.847 8s3.513 8 7.847 8zM19.225 18h-1.024c-1.361 0.637-2.875 1-4.469 1s-3.102-0.362-4.469-1h-1.024c-4.549 0-8.239 3.763-8.239 8.4v2.6c0 1.656 1.318 3 2.943 3h21.579c1.625 0 2.943-1.344 2.943-3v-2.6c0-4.637-3.691-8.4-8.239-8.4z"></path>
        </symbol>

        <!-- moon-icon -->
        <symbol id="moon" viewBox="0 0 32 32">
            <path fill="none" stroke="" style="" stroke-linejoin="round" stroke-linecap="round" stroke-miterlimit="4" stroke-width="2.9091" d="M13.688 17.091c-4.477-4.263-5.373-10.517-2.986-15.637-1.789 0.568-3.281 1.705-4.772 3.127-1.418 1.34-2.544 2.935-3.312 4.691s-1.164 3.641-1.164 5.544c0 1.903 0.395 3.788 1.164 5.544s1.894 3.351 3.312 4.692c5.967 5.686 15.215 5.402 21.181-0.284 1.492-1.422 2.685-2.843 3.281-4.55-5.667 1.991-12.231 1.137-16.707-3.127l0.003-0.001z"></path>
        </symbol>

        <!-- sun-icon -->
        <symbol id="sun" viewBox="6 6 21 21">
            <path
                d="M16.529 22v0c-3.038 0-5.5-2.462-5.5-5.5s2.462-5.5 5.5-5.5c3.038 0 5.5 2.462 5.5 5.5s-2.462 5.5-5.5 5.5zM16.529 21c2.485 0 4.5-2.015 4.5-4.5s-2.015-4.5-4.5-4.5c-2.485 0-4.5 2.015-4.5 4.5s2.015 4.5 4.5 4.5v0zM16.529 7c-0.276 0-0.5 0.216-0.5 0.495v2.009c0 0.274 0.232 0.495 0.5 0.495 0.276 0 0.5-0.216 0.5-0.495v-2.009c0-0.274-0.232-0.495-0.5-0.495v0zM23.267 9.791c-0.195-0.195-0.506-0.201-0.704-0.003l-1.421 1.421c-0.193 0.193-0.186 0.514 0.003 0.704 0.195 0.195 0.506 0.201 0.704 0.003l1.421-1.421c0.193-0.193 0.186-0.514-0.003-0.704v0zM26.058 16.529c0-0.276-0.216-0.5-0.495-0.5h-2.009c-0.274 0-0.495 0.232-0.495 0.5 0 0.276 0.216 0.5 0.495 0.5h2.009c0.274 0 0.495-0.232 0.495-0.5v0zM23.267 23.267c0.195-0.195 0.201-0.506 0.003-0.704l-1.421-1.421c-0.193-0.193-0.514-0.186-0.704 0.003-0.195 0.195-0.201 0.506-0.003 0.704l1.421 1.421c0.193 0.193 0.514 0.186 0.704-0.003v0zM16.529 26.058c0.276 0 0.5-0.216 0.5-0.495v-2.009c0-0.274-0.232-0.495-0.5-0.495-0.276 0-0.5 0.216-0.5 0.495v2.009c0 0.274 0.232 0.495 0.5 0.495v0zM9.791 23.267c0.195 0.195 0.506 0.201 0.704 0.003l1.421-1.421c0.193-0.193 0.186-0.514-0.003-0.704-0.195-0.195-0.506-0.201-0.704-0.003l-1.421 1.421c-0.193 0.193-0.186 0.514 0.003 0.704v0zM7 16.529c0 0.276 0.216 0.5 0.495 0.5h2.009c0.274 0 0.495-0.232 0.495-0.5 0-0.276-0.216-0.5-0.495-0.5h-2.009c-0.274 0-0.495 0.232-0.495 0.5v0zM9.791 9.791c-0.195 0.195-0.201 0.506-0.003 0.704l1.421 1.421c0.193 0.193 0.514 0.186 0.704-0.003 0.195-0.195 0.201-0.506 0.003-0.704l-1.421-1.421c-0.193-0.193-0.514-0.186-0.704 0.003v0z">
            </path>
        </symbol>

         <!-- cross-icon -->
        <symbol id="cross" viewBox="0 0 32 32">
            <path d="M27.136 4.004c0.424-0.439 0.659-1.028 0.654-1.638s-0.25-1.195-0.682-1.627c-0.432-0.432-1.016-0.677-1.627-0.682s-1.199 0.229-1.638 0.654l-8.235 8.235-8.235-8.235c-0.215-0.222-0.472-0.4-0.756-0.522s-0.59-0.186-0.899-0.189c-0.309-0.003-0.616 0.056-0.902 0.173s-0.546 0.29-0.765 0.509c-0.219 0.219-0.392 0.479-0.509 0.765s-0.176 0.593-0.173 0.902c0.003 0.309 0.067 0.615 0.189 0.899s0.299 0.541 0.522 0.756l8.235 8.235-8.235 8.235c-0.222 0.215-0.4 0.472-0.522 0.756s-0.186 0.59-0.189 0.899c-0.003 0.309 0.056 0.616 0.173 0.902s0.29 0.546 0.509 0.765c0.219 0.219 0.479 0.392 0.765 0.509s0.593 0.176 0.902 0.173 0.615-0.067 0.899-0.189c0.284-0.122 0.541-0.299 0.756-0.522l8.235-8.235 8.235 8.235c0.439 0.424 1.028 0.659 1.638 0.654s1.195-0.25 1.627-0.682c0.432-0.432 0.677-1.016 0.682-1.627s-0.229-1.199-0.654-1.638l-8.235-8.235 8.235-8.235z"></path>
            <path fill="none"  stroke-linejoin="miter" stroke-linecap="butt" stroke-miterlimit="4" stroke-width="0.8421" d="M27.136 4.004c0.424-0.439 0.659-1.028 0.654-1.638s-0.25-1.195-0.682-1.627c-0.432-0.432-1.016-0.677-1.627-0.682s-1.199 0.229-1.638 0.654l-8.235 8.235-8.235-8.235c-0.215-0.222-0.472-0.4-0.756-0.522s-0.59-0.186-0.899-0.189c-0.309-0.003-0.616 0.056-0.902 0.173s-0.546 0.29-0.765 0.509c-0.219 0.219-0.392 0.479-0.509 0.765s-0.176 0.593-0.173 0.902c0.003 0.309 0.067 0.615 0.189 0.899s0.299 0.541 0.522 0.756l8.235 8.235-8.235 8.235c-0.222 0.215-0.4 0.472-0.522 0.756s-0.186 0.59-0.189 0.899c-0.003 0.309 0.056 0.616 0.173 0.902s0.29 0.546 0.509 0.765c0.219 0.219 0.479 0.392 0.765 0.509s0.593 0.176 0.902 0.173 0.615-0.067 0.899-0.189c0.284-0.122 0.541-0.299 0.756-0.522l8.235-8.235 8.235 8.235c0.439 0.424 1.028 0.659 1.638 0.654s1.195-0.25 1.627-0.682c0.432-0.432 0.677-1.016 0.682-1.627s-0.229-1.199-0.654-1.638l-8.235-8.235 8.235-8.235z"></path>
        </symbol>

        <!-- eye-icon -->
        <symbol id="eye" viewBox="0 0 24 24" fill="none" >
            <path d="M3.27489 15.2957C2.42496 14.1915 2 13.6394 2 12C2 10.3606 2.42496 9.80853 3.27489 8.70433C4.97196 6.49956 7.81811 4 12 4C16.1819 4 19.028 6.49956 20.7251 8.70433C21.575 9.80853 22 10.3606 22 12C22 13.6394 21.575 14.1915 20.7251 15.2957C19.028 17.5004 16.1819 20 12 20C7.81811 20 4.97196 17.5004 3.27489 15.2957Z"  stroke-width="1.5"></path> 
            <path d="M15 12C15 13.6569 13.6569 15 12 15C10.3431 15 9 13.6569 9 12C9 10.3431 10.3431 9 12 9C13.6569 9 15 10.3431 15 12Z"  stroke-width="1.5"></path>
        </symbol>

        <!-- eye-close-icon -->
        <symbol id="eye-close" viewBox="0 0 24 24" fill="none" stroke-width="2" stroke-linecap="round" stroke-linejoin="round" class="feather feather-eye-off">
                <path d="M17.94 17.94A10.07 10.07 0 0 1 12 20c-7 0-11-8-11-8a18.45 18.45 0 0 1 5.06-5.94M9.9 4.24A9.12 9.12 0 0 1 12 4c7 0 11 8 11 8a18.5 18.5 0 0 1-2.16 3.19m-6.72-1.07a3 3 0 1 1-4.24-4.24"></path>
                <line x1="1" y1="1" x2="23" y2="23"></line>
        </symbol>

         <!-- checkbox-icon -->
        <symbol id="checkbox" viewBox="0 0 43 32">
            <path stroke-linejoin="round" stroke-linecap="round" stroke-miterlimit="4" stroke-width="3.7647" d="M41.412 1.882l-25.412 28.235-14.118-11.294"></path>
        </symbol>

        <!-- F-icon -->
        <symbol id="icon-F" viewBox="0 0 15 32">
            <path d="M3.907 32v-15.015h-3.907v-5.406h3.907v-4.618c0-3.629 2.308-6.961 7.625-6.961 2.153 0 3.745 0.21 3.745 0.21l-0.125 5.048c0 0-1.624-0.016-3.395-0.016-1.918 0-2.225 0.898-2.225 2.389v3.948h5.773l-0.251 5.406h-5.522v15.015h-5.625z"></path>
        </symbol>

        <!-- G-icon -->
        <symbol id="icon-G" viewBox="0 0 31 32">
            <path d="M31.238 16.24c0 9.054-6.203 15.498-15.363 15.498-8.783 0-15.875-7.090-15.875-15.869s7.093-15.869 15.875-15.869c4.276 0 7.874 1.568 10.645 4.153l-4.321 4.153c-5.652-5.452-16.163-1.357-16.163 7.563 0 5.535 4.423 10.021 9.839 10.021 6.286 0 8.642-4.505 9.013-6.84h-9.013v-5.458h15.113c0.147 0.813 0.25 1.593 0.25 2.649z"></path>
        </symbol>

        <!-- instagram -->
        <symbol id="instagram" viewBox="0 0 32 32">
            <path
                d="M10.668 16c0-2.945 2.387-5.334 5.333-5.334s5.334 2.388 5.334 5.334c0 2.945-2.389 5.334-5.334 5.334s-5.333-2.388-5.333-5.334zM7.785 16c0 4.538 3.678 8.216 8.216 8.216s8.216-3.678 8.216-8.216-3.678-8.216-8.216-8.216c-4.538 0-8.216 3.678-8.216 8.216zM22.622 7.458c-0 1.060 0.859 1.92 1.919 1.921s1.92-0.859 1.921-1.919-0.859-1.92-1.919-1.921c-1.060 0-1.92 0.859-1.921 1.919zM9.536 29.024c-1.56-0.071-2.408-0.331-2.971-0.55-0.747-0.291-1.28-0.637-1.84-1.197s-0.907-1.092-1.197-1.839c-0.22-0.563-0.479-1.411-0.55-2.971-0.078-1.687-0.093-2.193-0.093-6.466s0.017-4.778 0.093-6.466c0.071-1.56 0.333-2.406 0.55-2.971 0.291-0.747 0.637-1.28 1.197-1.84s1.092-0.907 1.84-1.197c0.563-0.22 1.411-0.479 2.971-0.55 1.687-0.078 2.193-0.093 6.464-0.093s4.778 0.017 6.466 0.093c1.56 0.071 2.407 0.333 2.971 0.55 0.747 0.29 1.28 0.637 1.84 1.197s0.906 1.093 1.197 1.84c0.22 0.563 0.48 1.411 0.55 2.971 0.078 1.688 0.093 2.193 0.093 6.466s-0.015 4.778-0.093 6.466c-0.071 1.56-0.332 2.408-0.55 2.971-0.291 0.747-0.637 1.28-1.197 1.839s-1.093 0.906-1.84 1.197c-0.563 0.22-1.411 0.479-2.971 0.55-1.687 0.078-2.193 0.093-6.466 0.093s-4.778-0.015-6.464-0.093zM9.404 0.097c-1.703 0.078-2.867 0.348-3.884 0.743-1.053 0.408-1.944 0.956-2.834 1.845s-1.437 1.782-1.846 2.834c-0.396 1.017-0.666 2.18-0.743 3.884-0.079 1.706-0.097 2.251-0.097 6.596s0.018 4.891 0.097 6.597c0.078 1.703 0.348 2.867 0.743 3.884 0.408 1.052 0.955 1.946 1.846 2.834s1.782 1.436 2.834 1.846c1.018 0.395 2.18 0.666 3.884 0.743 1.707 0.078 2.251 0.097 6.597 0.097s4.891-0.018 6.597-0.097c1.704-0.077 2.867-0.348 3.884-0.743 1.052-0.41 1.944-0.957 2.834-1.846s1.436-1.782 1.846-2.834c0.395-1.017 0.667-2.18 0.743-3.884 0.078-1.707 0.096-2.251 0.096-6.597s-0.018-4.891-0.096-6.596c-0.078-1.703-0.348-2.867-0.743-3.884-0.41-1.052-0.957-1.944-1.846-2.834s-1.782-1.437-2.833-1.845c-1.019-0.396-2.182-0.667-3.884-0.743-1.706-0.078-2.251-0.097-6.597-0.097s-4.891 0.018-6.598 0.097z">
            </path>
        </symbol>

        <!-- telegram -->
        <symbol id="telegram" viewBox="0 0 32 32">
            <path
                d="M16 32c8.837 0 16-7.163 16-16s-7.163-16-16-16c-8.837 0-16 7.163-16 16s7.163 16 16 16zM13.339 19.254l7.419-6.695c0.326-0.289-0.071-0.43-0.503-0.168l-9.156 5.777-3.955-1.234c-0.854-0.262-0.86-0.849 0.192-1.27l15.412-5.943c0.704-0.32 1.383 0.169 1.115 1.246l-2.625 12.368c-0.183 0.879-0.714 1.089-1.45 0.683l-3.998-2.954-1.922 1.869c-0.223 0.217-0.4 0.4-0.8 0.4l0.272-4.079z">
            </path>
        </symbol>

        <!-- facebook -->
        <symbol id="facebook" viewBox="0 0 32 32">
            <path
                d="M30.222 31.987l-28.456-0c-0.975 0-1.765-0.79-1.765-1.765v-28.456c0-0.975 0.79-1.765 1.765-1.765h28.456c0.975 0 1.765 0.79 1.765 1.765v28.457c0 0.975-0.79 1.765-1.765 1.765zM22.071 31.987v-12.387h4.158l0.622-4.827h-4.78v-3.082c0-1.398 0.388-2.35 2.392-2.35l2.556-0.001v-4.318c-0.442-0.059-1.96-0.19-3.725-0.19-3.686 0-6.209 2.25-6.209 6.381v3.56h-4.168v4.827h4.168v12.387l4.985 0z">
            </path>
        </symbol>

        <!-- watsApp -->
        <symbol id="whatsapp" viewBox="0 0 32 32">
            <path
                d="M23.296 19.176c-0.396-0.199-2.344-1.156-2.707-1.289-0.364-0.132-0.628-0.197-0.893 0.2-0.263 0.396-1.023 1.288-1.253 1.552-0.231 0.265-0.463 0.297-0.859 0.1-0.396-0.2-1.673-0.617-3.187-1.967-1.177-1.051-1.973-2.348-2.204-2.745-0.231-0.396-0.024-0.611 0.173-0.808 0.179-0.177 0.397-0.463 0.595-0.693 0.199-0.232 0.264-0.397 0.397-0.663 0.132-0.264 0.067-0.495-0.033-0.693s-0.892-2.149-1.221-2.943c-0.323-0.772-0.649-0.667-0.892-0.68-0.231-0.011-0.495-0.013-0.76-0.013-0.264 0-0.693 0.099-1.056 0.496-0.363 0.396-1.387 1.355-1.387 3.305 0 1.949 1.42 3.833 1.617 4.099 0.199 0.264 2.795 4.267 6.769 5.983 0.945 0.408 1.683 0.652 2.259 0.833 0.949 0.303 1.813 0.26 2.495 0.157 0.761-0.113 2.344-0.959 2.675-1.884s0.331-1.719 0.231-1.884c-0.099-0.165-0.361-0.264-0.759-0.463zM16.067 29.047h-0.005c-2.36 0-4.677-0.634-6.708-1.837l-0.481-0.285-4.988 1.309 1.331-4.864-0.313-0.499c-1.319-2.101-2.017-4.532-2.013-7.013 0.001-7.267 5.915-13.179 13.184-13.179 3.52 0 6.829 1.373 9.317 3.864 1.228 1.222 2.201 2.676 2.863 4.276s1 3.317 0.995 5.049c-0.004 7.267-5.916 13.179-13.18 13.179zM27.284 4.651c-1.469-1.479-3.217-2.651-5.143-3.45s-3.99-1.207-6.075-1.201c-8.74 0-15.853 7.113-15.857 15.856 0 2.795 0.729 5.523 2.117 7.927l-2.251 8.217 8.407-2.205c2.325 1.267 4.93 1.93 7.577 1.931h0.007c8.739 0 15.853-7.113 15.857-15.857 0.006-2.084-0.4-4.148-1.197-6.073s-1.967-3.674-3.443-5.144z">
            </path>
        </symbol>

        <!-- email -->
        <symbol id="email" viewBox="0 0 33 32">
            <path
                d="M0.064 24.032v-18.432c0-0.021 0.032-0.224 0.095-0.608l10.776 9.28-10.744 10.4c-0.085-0.299-0.127-0.512-0.127-0.64zM1.494 3.712c0.148-0.064 0.328-0.096 0.54-0.096h29.022c0.191 0 0.381 0.032 0.572 0.096l-10.808 9.312-1.43 1.152-2.829 2.336-2.829-2.336-1.43-1.152-10.808-9.312zM1.526 25.92l10.839-10.464 4.196 3.424 4.196-3.424 10.839 10.464c-0.17 0.064-0.35 0.096-0.54 0.096h-29.022c-0.17 0-0.339-0.032-0.509-0.096zM22.187 14.272l10.744-9.28c0.064 0.192 0.095 0.395 0.095 0.608v18.432c0 0.192-0.032 0.405-0.095 0.64l-10.744-10.4z">
            </path>
        </symbol>

        <!-- minus -->
       <symbol id="minus" viewBox="0 0 32 32">
            <path d="M28.303 12.329h-24.606c-0.358 0-0.648 0.29-0.648 0.648v6.047c0 0.358 0.29 0.648 0.648 0.648h24.605c0.357 0 0.647-0.29 0.647-0.648v-6.047c0-0.357-0.29-0.648-0.647-0.648z"></path>
       </symbol>    

        <!-- plus -->
       <symbol id="plus" viewBox="0 0 32 32">
            <path d="M32 12.444v7.111h-12v10.667h-8v-10.667h-12v-7.111h12v-10.667h8v10.667z"></path>
       </symbol>

        <!-- -camera -->
       <symbol id="photo-camera" viewBox="0 0 32 32">
            <path d="M16 23.333c1.667 0 3.084-0.583 4.251-1.749s1.749-2.584 1.749-4.251-0.583-3.084-1.749-4.251c-1.167-1.166-2.584-1.749-4.251-1.749s-3.084 0.583-4.251 1.749c-1.166 1.167-1.749 2.584-1.749 4.251s0.583 3.084 1.749 4.251c1.167 1.166 2.584 1.749 4.251 1.749zM5.333 28c-0.733 0-1.361-0.261-1.883-0.783s-0.784-1.151-0.784-1.884v-16c0-0.733 0.261-1.361 0.784-1.883s1.149-0.784 1.883-0.784h4.2l2.467-2.667h8l2.467 2.667h4.2c0.733 0 1.361 0.261 1.884 0.784s0.783 1.149 0.783 1.883v16c0 0.733-0.261 1.361-0.783 1.884s-1.151 0.783-1.884 0.783h-21.333z"></path>
       </symbol>

       <!-- delete -->
        <symbol id="icon-delete" viewBox="0 0 32 32">
            <path d="M11.2 25.143v-12.191h3.2v12.191h-3.2zM17.6 25.143v-12.191h3.2v12.191h-3.2zM8 28.19v-18.286h16v18.286h-16zM11.2 6.857v-3.048h9.6v3.048h-9.6zM24 6.857v-6.095h-16v6.095h-8v3.048h4.8v21.333h22.4v-21.333h4.8v-3.048h-8z"></path>
        </symbol>

        <!-- arrow-down -->
        <symbol id="arrow-down" viewBox="0 0 48 32">
            <path fill="none" stroke-linejoin="round" stroke-linecap="round" stroke-miterlimit="4" stroke-width="8" d="M4 6l20 20 20-20"></path>
        </symbol>

        <!-- arrow-up -->
        <symbol id="arrow-up" viewBox="0 0 48 32">
            <path fill="none" stroke-linejoin="round" stroke-linecap="round" stroke-miterlimit="4" stroke-width="8" d="M4 26l20-20 20 20"></path>
        </symbol>

        <!-- arrow-left -->
        <symbol id="arrow-left" viewBox="0 0 32 32">
            <path d="M23.472 24.309l-3.253 3.296-12.312-12.153 12.094-12.37 3.312 3.238-8.872 9.074 9.032 8.915z"></path>
        </symbol>

        <!-- arrow-right -->
        <symbol id="arrow-right" viewBox="0 0 32 32">
            <path d="M8.896 6.555l3.447-3.43 12.814 12.875-12.814 12.875-3.447-3.43 9.4-9.445-9.4-9.445z"></path>
        </symbol>
        
        <!-- scroll-up -->
        <symbol id="scroll-up"  viewBox="0 0 90 90">
          <path d="m39.9999 14.665 3.4303 3.0081-.0305.0268.4287.376 21.4132 18.7775-3.4303 3.0082-18.5198-16.2402-.8297-.7276V65.5h-4.9237V22.8401l-.8297.7275-18.5197 16.2402-3.4303-3.0082L39.9999 14.665Z"/>
        </symbol>
        
        <!-- document -->
        <symbol id="document" viewBox="0 0 32 32">
            <path d="M7.4 6.45h7.2v8.65h-7.2v-8.65z"></path>
            <path d="M17.475 6.45h5.75v1.45h-5.75v-1.45z"></path>
            <path d="M17.475 13.65h5.75v1.45h-5.75v-1.45z"></path>
            <path d="M17.475 10.050h5.75v1.45h-5.75v-1.45z"></path>
            <path d="M7.4 17.3h15.85v1.45h-15.85v-1.45z"></path>
            <path d="M7.4 24.325h15.85v1.45h-15.85v-1.45z"></path>
            <path d="M7.4 20.725h15.85v1.45h-15.85v-1.45z"></path>
            <path d="M3.8 1.825v28.925h23.45v-28.925h-23.45zM25.8 29.3h-20.575v-26.025h20.575v26.025z"></path>
        </symbol>

        <!-- edit -->
        <symbol id="edit" viewBox="0 0 32 32">
            <path stroke-linejoin="round" stroke-linecap="round" stroke-miterlimit="4" stroke-width="2.1895" d="M3.791 24.546c0.077-0.696 0.116-1.045 0.221-1.37 0.093-0.289 0.226-0.564 0.393-0.817 0.188-0.285 0.436-0.533 0.932-1.029l17.33-17.33c1.473-1.473 3.861-1.473 5.333 0v0c1.473 1.473 1.473 3.861 0 5.333l-17.33 17.33c-0.495 0.495-0.743 0.743-1.029 0.932-0.253 0.167-0.528 0.299-0.817 0.393-0.325 0.105-0.674 0.144-1.37 0.221l-4.121 0.458 0.458-4.121z"></path>
        </symbol>

        <!-- link -->
       <symbol id="link" viewBox="0 0 32 32">
            <path d="M6.4 17.6h19.2v-3.2h-19.2v3.2zM19.2 6.4v3.2h9.6v12.8h-9.6v3.2h12.8v-19.2h-12.8zM3.2 22.4h9.6v3.2h-12.8v-19.2h12.8v3.2h-9.6v12.8z"></path>
        </symbol>

        <!-- images -->
        <symbol id="images" viewBox="0 0 32 32">
            <path d="M11.2 5.333c-0.078 0-0.149 0.016-0.221 0.048l-10.094 4.592c-0.786 0.357-1.102 1.309-0.733 2.075l6.626 13.744c0.37 0.766 1.323 1.141 2.098 0.708l3.65-2.034c0.627-0.318 0.047-1.259-0.518-0.931l-3.652 2.033c-0.209 0.117-0.498 0.011-0.619-0.239l-0.442-0.914 2.011-1.006c0.645-0.324 0.083-1.237-0.48-0.954l-1.995 0.997-5.718-11.869c-0.121-0.249-0.025-0.531 0.213-0.64l10.095-4.592c0.517-0.237 0.306-1.019-0.221-1.019zM16.295 4.267c-0.203 0-0.402 0.037-0.589 0.111-0.373 0.146-0.691 0.434-0.864 0.827l-6.179 14.156c-0.341 0.786 0.021 1.717 0.807 2.059l14.162 6.183c0.786 0.341 1.717-0.021 2.059-0.807l6.181-14.162c0.341-0.786-0.025-1.717-0.811-2.059l-14.159-6.179c-0.196-0.085-0.403-0.128-0.608-0.128zM16.279 5.327c0.064 0.002 0.13 0.017 0.195 0.046l14.163 6.181c0.26 0.114 0.368 0.395 0.254 0.654l-5.141 11.783-15.072-6.577 5.143-11.787c0.085-0.194 0.265-0.305 0.459-0.301zM10.251 18.391l15.072 6.579-0.61 1.401c-0.114 0.26-0.395 0.37-0.654 0.256l-14.163-6.181c-0.26-0.114-0.37-0.395-0.256-0.656zM8 17.067c-0.235-0.002-0.435 0.142-0.507 0.365l-1.067 3.2c-0.207 0.622 0.782 1.031 1.013 0.337l1.067-3.2c0.119-0.345-0.142-0.7-0.507-0.702zM17.6 13.867c-0.080 0-0.166 0.021-0.238 0.057l-4.267 2.133c-0.636 0.285-0.099 1.269 0.476 0.954l3.845-1.922 1.873 2.807c0.149 0.224 0.441 0.301 0.683 0.181l3.844-1.922 1.873 2.807c0.375 0.583 1.269-0.035 0.887-0.591l-2.133-3.2c-0.149-0.224-0.441-0.301-0.683-0.181l-3.844 1.922-1.873-2.807c-0.1-0.151-0.262-0.241-0.444-0.238zM18.133 8.533c-1.173 0-2.133 0.96-2.133 2.133s0.96 2.133 2.133 2.133 2.133-0.96 2.133-2.133-0.96-2.133-2.133-2.133zM18.133 9.6c0.601 0 1.067 0.466 1.067 1.067s-0.466 1.067-1.067 1.067-1.067-0.466-1.067-1.067 0.466-1.067 1.067-1.067zM6.4 11.733c-1.173 0-2.133 0.96-2.133 2.133s0.96 2.133 2.133 2.133 2.133-0.96 2.133-2.133-0.96-2.133-2.133-2.133zM6.4 12.8c0.601 0 1.067 0.466 1.067 1.067s-0.466 1.067-1.067 1.067-1.067-0.466-1.067-1.067 0.466-1.067 1.067-1.067z"></path>
        </symbol>

        <!-- replace -->
        <symbol id="replace" viewBox="0 0 32 32">
            <path d="M12.308 23.077c0-0.492-0.431-0.923-0.923-0.923h-9.231c-0.492 0-0.923 0.431-0.923 0.923v6.769c0 0.492 0.431 0.923 0.923 0.923h9.231c0.492 0 0.923-0.431 0.923-0.923v-6.769z"></path>
            <path d="M4.985 13.538h-3.015c-0.615 0-0.923 0.554-0.554 0.862l4.923 5.108c0.246 0.185 0.615 0.185 0.862 0l4.923-5.108c0.369-0.369 0.062-0.862-0.554-0.862h-2.892c0-3.077 3.015-6.154 6.092-6.154v-3.692c-5.538 0-9.785 4.308-9.785 9.846z"></path>
            <path d="M25.723 12.492c-0.246-0.185-0.615-0.185-0.862 0l-4.923 5.108c-0.369 0.369-0.062 0.862 0.554 0.862h2.954c0 3.692-2.523 6.154-6.215 6.154v3.692c5.538 0 9.908-4.308 9.908-9.846h3.015c0.615 0 0.923-0.554 0.554-0.862l-4.985-5.108z"></path>
            <path d="M30.769 2.154c0-0.492-0.431-0.923-0.923-0.923h-9.231c-0.492 0-0.923 0.431-0.923 0.923v6.769c0 0.492 0.431 0.923 0.923 0.923h9.231c0.492 0 0.923-0.431 0.923-0.923v-6.769z"></path>
        </symbol>

        <!-- burger-menu -->
        <symbol id="burger-menu" viewBox="0 0 32 32">
            <path d="M1.333 14.667h29.333v2.667h-29.333v-2.667z"></path>
            <path d="M1.333 6.667h29.333v2.667h-29.333v-2.667z"></path>
            <path d="M1.333 22.667h29.333v2.667h-29.333v-2.667z"></path>
        </symbol>

        <!-- ukraine-flag -->
        <symbol id="ukraine-flag" viewBox="0 0 35 32">
            <path fill="#FFD700" style="fill: var(--color2, #FFD700)" d="M0 16h34.667v16h-34.667v-16z"></path>
            <path fill="#0057B8" style="fill: var(--color3, #0057B8)" d="M0 0h34.667v16h-34.667v-16z"></path>
        </symbol>

        <!-- uk-flag -->
       <symbol id="uk-flag" viewBox="0 0 35 32">
            <path fill="#012169" style="fill: var(--color2, #012169)" d="M5.387 32h6.96v-6.453z"></path>
            <path fill="#012169" style="fill: var(--color2, #012169)" d="M12.347 0h-6.853l6.853 6.373z"></path>
            <path fill="#012169" style="fill: var(--color2, #012169)" d="M0 20.987v6.053l6.56-6.053z"></path>
            <path fill="#012169" style="fill: var(--color2, #012169)" d="M34.667 27.147v-6.16h-6.64z"></path>
            <path fill="#012169" style="fill: var(--color2, #012169)" d="M0 4.853v6.16h6.64z"></path>
            <path fill="#012169" style="fill: var(--color2, #012169)" d="M34.667 11.013v-6.053l-6.56 6.053z"></path>
            <path fill="#012169" style="fill: var(--color2, #012169)" d="M22.32 32h6.853l-6.853-6.373z"></path>
            <path fill="#012169" style="fill: var(--color2, #012169)" d="M29.28 0h-6.96v6.453z"></path>
            <path fill="#C8102E" style="fill: var(--color3, #C8102E)" d="M22.693 20.987h-0.373v2.080l9.6 8.933h2.747v-2.293l-9.387-8.72z"></path>
            <path fill="#C8102E" style="fill: var(--color3, #C8102E)" d="M11.973 11.013h0.373v-2.080l-9.6-8.933h-2.747v2.293l9.387 8.72z"></path>
            <path fill="#C8102E" style="fill: var(--color3, #C8102E)" d="M9.307 20.987l-9.307 8.587v2.427h2.613l9.733-8.987v-2.027h-0.4z"></path>
            <path fill="#C8102E" style="fill: var(--color3, #C8102E)" d="M32.053 0l-9.733 8.987v2.027h3.040l9.307-8.587v-2.427z"></path>
            <path fill="#C8102E" style="fill: var(--color3, #C8102E)" d="M20.453 0h-6.24v12.88h-14.213v6.24h14.213v12.88h6.24v-12.88h14.213v-6.24h-14.213z"></path>
            <path fill="#fff" style="fill: var(--color4, #fff)" d="M25.36 11.013h-3.040v-2.027l9.733-8.987h-2.773l-6.96 6.453v-6.453h-1.867v12.88h14.213v-1.867h-6.56l6.56-6.053v-2.533z"></path>
            <path fill="#fff" style="fill: var(--color4, #fff)" d="M12.347 6.373l-6.853-6.373h-2.747l9.6 8.933v2.080h-2.96l-9.387-8.72v2.56l6.64 6.16h-6.64v1.867h14.213v-12.88h-1.867z"></path>
            <path fill="#fff" style="fill: var(--color4, #fff)" d="M20.453 19.12v12.88h1.867v-6.373l6.853 6.373h2.747l-9.6-8.933v-2.080h2.96l9.387 8.72v-2.56l-6.64-6.16h6.64v-1.867h-10z"></path>
            <path fill="#fff" style="fill: var(--color4, #fff)" d="M0 19.12v1.867h6.56l-6.56 6.053v2.533l9.307-8.587h3.040v2.027l-9.733 8.987h2.773l6.96-6.453v6.453h1.867v-12.88h-0.24z"></path>
        </symbol>

        <!-- dots menu -->
        <symbol id="dots-menu" viewBox="0 0 32 32">
            <path d="M16 3.667c1.657 0 3 1.343 3 3s-1.343 3-3 3c-1.657 0-3-1.343-3-3s1.343-3 3-3z"></path>
            <path d="M16 13c1.657 0 3 1.343 3 3s-1.343 3-3 3c-1.657 0-3-1.343-3-3s1.343-3 3-3z"></path>
            <path d="M16 22.333c1.657 0 3 1.343 3 3s-1.343 3-3 3c-1.657 0-3-1.343-3-3s1.343-3 3-3z"></path>
        </symbol>

        <!-- bookmark -->
        <symbol id="bookmark" viewBox="0 0 32 32">
            <path d="M25.697 0h-19.394c-0.803 0-1.455 0.651-1.455 1.455v29.091c0 0.559 0.321 1.069 0.824 1.311s1.102 0.174 1.539-0.175l8.788-7.031 8.788 7.031c0.263 0.21 0.584 0.319 0.909 0.319 0.214 0 0.43-0.047 0.63-0.143 0.504-0.242 0.824-0.752 0.824-1.311v-29.091c0-0.803-0.651-1.455-1.455-1.455zM24.242 27.519l-7.334-5.867c-0.266-0.212-0.587-0.319-0.909-0.319s-0.643 0.106-0.909 0.319l-7.334 5.867v-24.61h16.485v24.61z"></path>
        </symbol>

        <!-- opened book -->
        <symbol id="opened-book" viewBox="2 2 28 28">
            <path d="M5.333 8.844c0.187-0.075 0.411-0.157 0.671-0.241 1.171-0.382 2.518-0.603 3.917-0.603 0.028 0 0.055 0 0.083 0l-0.004-0c0.023-0 0.051-0 0.079-0 1.399 0 2.746 0.221 4.009 0.629l-0.092-0.026c0.26 0.084 0.484 0.167 0.671 0.241v14.507c-1.374-0.434-2.954-0.684-4.593-0.684-0.026 0-0.052 0-0.078 0h0.004c-1.947 0-3.532 0.331-4.667 0.684v-14.507zM16 6.513c-0.304-0.14-0.696-0.292-1.097-0.424l-0.087-0.025c-1.415-0.464-3.043-0.731-4.733-0.731-0.029 0-0.058 0-0.087 0l0.005-0c-2.035 0-3.673 0.361-4.816 0.731-0.538 0.173-0.979 0.349-1.407 0.549l0.073-0.031c-0.207 0.095-0.363 0.175-0.516 0.261l0.040-0.021-0.033 0.019-0.012 0.007-0.004 0.003h-0.001c-0.003 0.003-0.329 0.196-0.003 0.003-0.394 0.237-0.653 0.661-0.653 1.147v0 17.333c0 0.736 0.597 1.333 1.333 1.333 0.251 0 0.486-0.069 0.686-0.19l-0.006 0.003-0.007 0.004h0.001l0.003-0.001 0.001-0.001 0.049-0.027c0.049-0.027 0.131-0.067 0.243-0.12 0.227-0.104 0.573-0.251 1.033-0.4 1.17-0.382 2.516-0.602 3.913-0.602 0.029 0 0.058 0 0.087 0l-0.004-0c0.025-0 0.054-0 0.083-0 1.397 0 2.743 0.22 4.005 0.627l-0.092-0.026c0.416 0.133 0.759 0.269 1.090 0.424l-0.057-0.024c0.131 0.061 0.229 0.11 0.325 0.163l-0.027-0.014zM15.327 26.484h-0.001l-0.003-0.001-0.001-0.001c0.419 0.247 0.939 0.247 1.357 0l0.049-0.027c0.049-0.027 0.131-0.067 0.243-0.12 0.275-0.131 0.617-0.267 0.968-0.382l0.065-0.018c1.17-0.382 2.516-0.602 3.913-0.602 0.029 0 0.058 0 0.087 0l-0.004-0c0.025-0 0.054-0 0.083-0 1.397 0 2.743 0.22 4.005 0.627l-0.092-0.026c0.416 0.133 0.759 0.269 1.090 0.424l-0.057-0.024c0.13 0.060 0.225 0.109 0.319 0.16l-0.027-0.014c0.194 0.117 0.428 0.186 0.679 0.186 0.736 0 1.333-0.597 1.333-1.333 0-0 0-0 0-0v0-17.333c-0-0.485-0.26-0.91-0.647-1.143l-0.006-0.003-0.003-0.001h-0.001l-0.004-0.004-0.013-0.007-0.032-0.019c-0.113-0.065-0.269-0.145-0.428-0.22l-0.048-0.020c-0.355-0.17-0.796-0.346-1.25-0.495l-0.084-0.024c-1.415-0.464-3.043-0.731-4.733-0.731-0.030 0-0.059 0-0.089 0l0.005-0c-2.033 0-3.673 0.361-4.816 0.731-0.487 0.156-0.879 0.309-1.261 0.48l0.077-0.031zM26.667 8.844v14.507c-1.374-0.434-2.954-0.684-4.593-0.684-0.026 0-0.052 0-0.078 0h0.004c-1.947 0-3.532 0.331-4.667 0.684v-14.507c0.187-0.075 0.411-0.157 0.671-0.241 1.171-0.382 2.518-0.603 3.917-0.603 0.028 0 0.055 0 0.083 0l-0.004-0c0.023-0 0.051-0 0.079-0 1.399 0 2.746 0.221 4.009 0.629l-0.092-0.026c0.26 0.084 0.484 0.167 0.671 0.241zM27.32 9.148l0.007 0.003h-0.001l-0.004-0.003zM27.32 26.481l0.005 0.003-0.003-0.003z"></path>
        </symbol>

        <!-- sort -->
        <symbol id="sort" viewBox="0 0 32 32">
            <path d="M2.667 9.333c0-0.736 0.597-1.333 1.333-1.333v0h24c0.736 0 1.333 0.597 1.333 1.333s-0.597 1.333-1.333 1.333v0h-24c-0.736 0-1.333-0.597-1.333-1.333v0zM2.667 16c0-0.736 0.597-1.333 1.333-1.333v0h18.667c0.736 0 1.333 0.597 1.333 1.333s-0.597 1.333-1.333 1.333v0h-18.667c-0.736 0-1.333-0.597-1.333-1.333v0zM4 21.333c-0.736 0-1.333 0.597-1.333 1.333s0.597 1.333 1.333 1.333v0h13.333c0.736 0 1.333-0.597 1.333-1.333s-0.597-1.333-1.333-1.333v0h-13.333z"></path>
        </symbol>

        <!-- sum -->
        <symbol id="sum" viewBox="0 0 32 32">
            <path d="M26.139 6.413v-2.755h-17.909l10.538 11.334c0.66 0.71 0.651 1.815-0.021 2.513l-10.419 10.837h17.811v-1.664c0-1.008 0.82-1.829 1.829-1.829s1.829 0.82 1.829 1.828v3.493c0 1.009-0.821 1.829-1.829 1.829h-23.935c-0.734 0-1.395-0.436-1.683-1.113s-0.145-1.455 0.364-1.984l12.199-12.686-12.22-13.142c-0.495-0.533-0.628-1.308-0.337-1.976s0.949-1.099 1.677-1.099h23.936c1.008 0 1.829 0.82 1.829 1.829v4.584c0 1.008-0.821 1.829-1.829 1.829s-1.829-0.82-1.829-1.829z"></path>
        </symbol>

        <!-- plus thin -->
        <symbol id="plus-thin" viewBox="0 0 32 32">
            <path d="M32 14.476v3.048h-14.4v13.714h-3.2v-13.714h-14.4v-3.048h14.4v-13.714h3.2v13.714z"></path>
        </symbol>
    </defs>
</svg>